<svg height="512" width="512" xmlns="http://www.w3.org/2000/svg"><path d="m0 0v512h512v-512zm264.0953979 237.798111c-18.4618835 26.6161346-55.4204865 40.048111-106.4229736 37.6388397v97.1322327h-43.5428772v-269.0692521l65.8720551-1.1167984c54.756073-2.060463 96.7329865 26.941803 97.1338043 84.8514557-.4725647 20.3925324-3.9090576 37.399643-13.0400086 50.5635224zm142.5509339-29.349762c-.0529785 1.7313538-.9386902 2.2740021-2.2331238 2.2331238-16.2471008-1.4738617-32.9920959.9992828-46.8914795 4.4651337v157.4225769l-43.5433655.0003662.0004883-158.5395508c.1739807-9.3945618-.3418884-16.2161255-1.1166077-23.445694-.1638489-.8277435-.1901245-2.5627899 2.2332153-3.3497162 21.7662354-7.8951263 54.6452942-17.4235687 89.317749-16.7462769 1.3707275-.0077515 2.2214661.608963 2.2331238 2.2331238v35.7269135zm-174.1704102-20.097168c.0511475 13.4279327-2.1696777 23.0260315-7.2939911 29.9068604-13.1988831 17.723114-39.2106628 17.4191589-47.412323 18.1023254h-20.0971832v-94.9003143l23.4457092-.000351c38.0890351.2674714 50.7774811 19.5387421 51.3577881 46.8914795z"/></svg>