<svg height="512" width="512" xmlns="http://www.w3.org/2000/svg"><path d="m167.7963867 154.2981567c5.5854492 26.5308838 20.9454346 81.2218018 27.2290649 106.3563843h-53.5272827c9.3090821-35.1418457 21.6436158-79.8255005 26.2982178-106.3563843zm344.2036133-154.2981567v512h-512v-512zm-245.3267822 367.7090454-73.9681397-249.0181274h-51.2069092c-.0675049 8.0930786-.6244507 15.5253906-2.3272705 21.4108887l-65.4016723 227.6072387h39.1572266l18.7971802-69.8181763h72.8436279l19.3939209 69.8181763zm162.7703857-11.461792c-.7443237-13.6315308-1.6908569-22.1363525-1.6908569-25.076355v-147.3163452h-39.3309326v147.7818604c-30.8536987 10.6239014-57.0956421 2.2410278-55.8544922-29.7891235v-117.9927369h-41.6582031v122.8800049c-1.0284424 74.0812378 68.9334106 77.9084473 138.5344848 49.5126953z"/></svg>